<mxfile host="Electron" modified="2023-05-31T13:28:51.452Z" agent="Mozilla/5.0 (Windows NT 10.0; Win64; x64) AppleWebKit/537.36 (KHTML, like Gecko) draw.io/21.2.8 Chrome/112.0.5615.165 Electron/24.2.0 Safari/537.36" etag="1McRstCgDZAojp_4Ml0G" version="21.2.8" type="device">
  <diagram name="Page-1" id="Vn31Phi38d548Jd6JGEV">
    <mxGraphModel dx="1418" dy="820" grid="1" gridSize="10" guides="1" tooltips="1" connect="1" arrows="1" fold="1" page="1" pageScale="1" pageWidth="850" pageHeight="1100" math="0" shadow="0">
      <root>
        <mxCell id="0" />
        <mxCell id="1" parent="0" />
        <mxCell id="HSjvIxSosh0ikxAGgUQO-1" value="" style="rounded=1;whiteSpace=wrap;html=1;fillColor=#dae8fc;strokeColor=#6c8ebf;" parent="1" vertex="1">
          <mxGeometry x="50" y="40" width="190" height="360" as="geometry" />
        </mxCell>
        <mxCell id="HSjvIxSosh0ikxAGgUQO-3" value="" style="rounded=1;whiteSpace=wrap;html=1;fillColor=#fff2cc;strokeColor=#d6b656;" parent="1" vertex="1">
          <mxGeometry x="250" y="190" width="190" height="210" as="geometry" />
        </mxCell>
        <mxCell id="HSjvIxSosh0ikxAGgUQO-4" value="&lt;font style=&quot;font-size: 20px;&quot;&gt;Master Node&lt;/font&gt;" style="text;html=1;strokeColor=none;fillColor=none;align=center;verticalAlign=middle;whiteSpace=wrap;rounded=0;" parent="1" vertex="1">
          <mxGeometry x="82.5" y="13" width="125" height="30" as="geometry" />
        </mxCell>
        <mxCell id="HSjvIxSosh0ikxAGgUQO-5" value="&lt;font style=&quot;font-size: 20px;&quot;&gt;Server Nodes&lt;/font&gt;" style="text;html=1;strokeColor=none;fillColor=none;align=center;verticalAlign=middle;whiteSpace=wrap;rounded=0;" parent="1" vertex="1">
          <mxGeometry x="282.5" y="163" width="125" height="30" as="geometry" />
        </mxCell>
        <mxCell id="dOM9HWIBabcOR5BkwlwP-8" style="edgeStyle=orthogonalEdgeStyle;rounded=0;orthogonalLoop=1;jettySize=auto;html=1;entryX=0.5;entryY=0;entryDx=0;entryDy=0;" parent="1" source="HSjvIxSosh0ikxAGgUQO-7" target="dOM9HWIBabcOR5BkwlwP-1" edge="1">
          <mxGeometry relative="1" as="geometry" />
        </mxCell>
        <mxCell id="HSjvIxSosh0ikxAGgUQO-7" value="&lt;font style=&quot;font-size: 12px;&quot;&gt;①&amp;nbsp;Read layer configuration&lt;/font&gt;" style="rounded=0;whiteSpace=wrap;html=1;align=left;" parent="1" vertex="1">
          <mxGeometry x="65" y="50" width="160" height="30" as="geometry" />
        </mxCell>
        <mxCell id="HSjvIxSosh0ikxAGgUQO-9" value="&lt;font style=&quot;font-size: 12px;&quot;&gt;⑩&amp;nbsp;Layer confirmation&lt;/font&gt;" style="rounded=0;whiteSpace=wrap;html=1;align=left;" parent="1" vertex="1">
          <mxGeometry x="65" y="360" width="160" height="30" as="geometry" />
        </mxCell>
        <mxCell id="dOM9HWIBabcOR5BkwlwP-10" style="edgeStyle=orthogonalEdgeStyle;rounded=0;orthogonalLoop=1;jettySize=auto;html=1;entryX=0.5;entryY=0;entryDx=0;entryDy=0;" parent="1" source="dOM9HWIBabcOR5BkwlwP-1" target="dOM9HWIBabcOR5BkwlwP-2" edge="1">
          <mxGeometry relative="1" as="geometry" />
        </mxCell>
        <mxCell id="dOM9HWIBabcOR5BkwlwP-1" value="&lt;font style=&quot;font-size: 12px;&quot;&gt;②&amp;nbsp;Read model configuration&lt;/font&gt;" style="rounded=0;whiteSpace=wrap;html=1;align=left;" parent="1" vertex="1">
          <mxGeometry x="65" y="100" width="160" height="30" as="geometry" />
        </mxCell>
        <mxCell id="dOM9HWIBabcOR5BkwlwP-11" style="edgeStyle=orthogonalEdgeStyle;rounded=0;orthogonalLoop=1;jettySize=auto;html=1;" parent="1" source="dOM9HWIBabcOR5BkwlwP-2" target="dOM9HWIBabcOR5BkwlwP-3" edge="1">
          <mxGeometry relative="1" as="geometry" />
        </mxCell>
        <mxCell id="dOM9HWIBabcOR5BkwlwP-2" value="&lt;font style=&quot;font-size: 12px;&quot;&gt;③ Create&amp;nbsp; layer distribution configuration list&lt;/font&gt;" style="rounded=0;whiteSpace=wrap;html=1;align=left;" parent="1" vertex="1">
          <mxGeometry x="65" y="150" width="160" height="30" as="geometry" />
        </mxCell>
        <mxCell id="dOM9HWIBabcOR5BkwlwP-12" style="edgeStyle=orthogonalEdgeStyle;rounded=0;orthogonalLoop=1;jettySize=auto;html=1;entryX=0;entryY=0.5;entryDx=0;entryDy=0;" parent="1" source="dOM9HWIBabcOR5BkwlwP-3" target="dOM9HWIBabcOR5BkwlwP-4" edge="1">
          <mxGeometry relative="1" as="geometry" />
        </mxCell>
        <mxCell id="4NC7xafMKUF_hPEPK5Oz-4" style="edgeStyle=orthogonalEdgeStyle;rounded=0;orthogonalLoop=1;jettySize=auto;html=1;entryX=0.5;entryY=0;entryDx=0;entryDy=0;" parent="1" source="dOM9HWIBabcOR5BkwlwP-3" target="4NC7xafMKUF_hPEPK5Oz-1" edge="1">
          <mxGeometry relative="1" as="geometry" />
        </mxCell>
        <mxCell id="dOM9HWIBabcOR5BkwlwP-3" value="&lt;font style=&quot;font-size: 12px;&quot;&gt;④&amp;nbsp;Distribute layer conf to each server node base on server node list and layer distribution configuration list&lt;/font&gt;" style="rounded=0;whiteSpace=wrap;html=1;align=left;" parent="1" vertex="1">
          <mxGeometry x="65" y="200" width="160" height="70" as="geometry" />
        </mxCell>
        <mxCell id="dOM9HWIBabcOR5BkwlwP-13" style="edgeStyle=orthogonalEdgeStyle;rounded=0;orthogonalLoop=1;jettySize=auto;html=1;" parent="1" source="dOM9HWIBabcOR5BkwlwP-4" target="dOM9HWIBabcOR5BkwlwP-5" edge="1">
          <mxGeometry relative="1" as="geometry" />
        </mxCell>
        <mxCell id="dOM9HWIBabcOR5BkwlwP-4" value="&lt;font style=&quot;font-size: 12px;&quot;&gt;⑤&amp;nbsp;Write layer distribution signal&lt;/font&gt;" style="rounded=0;whiteSpace=wrap;html=1;align=left;" parent="1" vertex="1">
          <mxGeometry x="265" y="200" width="160" height="30" as="geometry" />
        </mxCell>
        <mxCell id="4NC7xafMKUF_hPEPK5Oz-5" style="edgeStyle=orthogonalEdgeStyle;rounded=0;orthogonalLoop=1;jettySize=auto;html=1;entryX=0.5;entryY=0;entryDx=0;entryDy=0;" parent="1" source="dOM9HWIBabcOR5BkwlwP-5" target="4NC7xafMKUF_hPEPK5Oz-3" edge="1">
          <mxGeometry relative="1" as="geometry" />
        </mxCell>
        <mxCell id="dOM9HWIBabcOR5BkwlwP-5" value="&lt;font style=&quot;font-size: 12px;&quot;&gt;⑥&amp;nbsp;Create layer instance&lt;/font&gt;" style="rounded=0;whiteSpace=wrap;html=1;align=left;" parent="1" vertex="1">
          <mxGeometry x="265" y="250" width="160" height="30" as="geometry" />
        </mxCell>
        <mxCell id="dOM9HWIBabcOR5BkwlwP-15" style="edgeStyle=orthogonalEdgeStyle;rounded=0;orthogonalLoop=1;jettySize=auto;html=1;entryX=1;entryY=0.5;entryDx=0;entryDy=0;" parent="1" source="dOM9HWIBabcOR5BkwlwP-6" target="HSjvIxSosh0ikxAGgUQO-9" edge="1">
          <mxGeometry relative="1" as="geometry" />
        </mxCell>
        <mxCell id="dOM9HWIBabcOR5BkwlwP-6" value="&lt;font style=&quot;font-size: 12px;&quot;&gt;⑧&amp;nbsp;Send confirm massage&lt;/font&gt;" style="rounded=0;whiteSpace=wrap;html=1;align=left;" parent="1" vertex="1">
          <mxGeometry x="265" y="360" width="160" height="30" as="geometry" />
        </mxCell>
        <mxCell id="4NC7xafMKUF_hPEPK5Oz-1" value="&lt;font style=&quot;font-size: 12px;&quot;&gt;⑨ Create publishers subscribers base on&amp;nbsp;&lt;/font&gt;layer distribution configuration list" style="rounded=0;whiteSpace=wrap;html=1;align=left;" parent="1" vertex="1">
          <mxGeometry x="65" y="290" width="160" height="50" as="geometry" />
        </mxCell>
        <mxCell id="4NC7xafMKUF_hPEPK5Oz-6" style="edgeStyle=orthogonalEdgeStyle;rounded=0;orthogonalLoop=1;jettySize=auto;html=1;entryX=0.5;entryY=0;entryDx=0;entryDy=0;" parent="1" source="4NC7xafMKUF_hPEPK5Oz-3" target="dOM9HWIBabcOR5BkwlwP-6" edge="1">
          <mxGeometry relative="1" as="geometry" />
        </mxCell>
        <mxCell id="4NC7xafMKUF_hPEPK5Oz-3" value="&lt;font style=&quot;font-size: 12px;&quot;&gt;⑦ Create publishers and subscribers&lt;/font&gt;" style="rounded=0;whiteSpace=wrap;html=1;align=left;" parent="1" vertex="1">
          <mxGeometry x="265" y="300" width="160" height="40" as="geometry" />
        </mxCell>
      </root>
    </mxGraphModel>
  </diagram>
</mxfile>
